<svg width="1048" height="264" viewBox="0 0 1048 264" fill="none" xmlns="http://www.w3.org/2000/svg">
<path d="M606.244 195H586.972V93.092H632.962C637.634 93.092 641.819 93.822 645.518 95.282C649.217 96.742 652.331 98.8833 654.862 101.706C657.49 104.431 659.485 107.741 660.848 111.634C662.308 115.527 663.038 119.859 663.038 124.628C663.038 131.636 661.432 137.671 658.22 142.732C655.105 147.793 650.385 151.395 644.058 153.536L664.936 195H643.474L624.494 155.726H606.244V195ZM631.064 139.52C634.763 139.52 637.683 138.547 639.824 136.6C641.965 134.556 643.036 131.685 643.036 127.986V121.27C643.036 117.571 641.965 114.749 639.824 112.802C637.683 110.855 634.763 109.882 631.064 109.882H606.244V139.52H631.064ZM711.424 196.752C705.779 196.752 700.718 195.827 696.24 193.978C691.86 192.031 688.113 189.355 684.998 185.948C681.981 182.444 679.645 178.259 677.99 173.392C676.336 168.428 675.508 162.88 675.508 156.748C675.508 150.713 676.287 145.263 677.844 140.396C679.499 135.529 681.835 131.393 684.852 127.986C687.87 124.482 691.568 121.805 695.948 119.956C700.328 118.009 705.292 117.036 710.84 117.036C716.778 117.036 721.936 118.058 726.316 120.102C730.696 122.146 734.298 124.92 737.12 128.424C739.943 131.928 742.036 136.016 743.398 140.688C744.858 145.263 745.588 150.178 745.588 155.434V161.566H694.926V163.464C694.926 169.012 696.484 173.489 699.598 176.896C702.713 180.205 707.336 181.86 713.468 181.86C718.14 181.86 721.936 180.887 724.856 178.94C727.874 176.993 730.55 174.511 732.886 171.494L742.96 182.736C739.846 187.116 735.563 190.571 730.112 193.102C724.759 195.535 718.53 196.752 711.424 196.752ZM711.132 131.052C706.168 131.052 702.226 132.707 699.306 136.016C696.386 139.325 694.926 143.608 694.926 148.864V150.032H726.17V148.718C726.17 143.462 724.856 139.228 722.228 136.016C719.698 132.707 715.999 131.052 711.132 131.052ZM765.827 133.534H754.585V118.788H765.827V107.838C765.827 101.122 767.579 95.9633 771.083 92.362C774.684 88.7607 779.94 86.96 786.851 86.96H800.137V101.852H784.515V118.788H800.137V133.534H784.515V195H765.827V133.534ZM814.242 195V93.092H833.514V177.918H873.664V195H814.242ZM945.702 195C941.614 195 938.353 193.832 935.92 191.496C933.584 189.063 932.124 185.851 931.54 181.86H930.664C929.399 186.824 926.819 190.571 922.926 193.102C919.033 195.535 914.215 196.752 908.472 196.752C900.685 196.752 894.699 194.708 890.514 190.62C886.329 186.532 884.236 181.081 884.236 174.268C884.236 166.384 887.059 160.544 892.704 156.748C898.349 152.855 906.379 150.908 916.794 150.908H929.788V145.36C929.788 141.077 928.669 137.768 926.43 135.432C924.191 133.096 920.59 131.928 915.626 131.928C911.246 131.928 907.693 132.901 904.968 134.848C902.34 136.697 900.101 138.936 898.252 141.564L887.156 131.636C889.979 127.256 893.726 123.752 898.398 121.124C903.07 118.399 909.251 117.036 916.94 117.036C927.257 117.036 935.093 119.372 940.446 124.044C945.799 128.716 948.476 135.432 948.476 144.192V180.108H956.068V195H945.702ZM914.75 183.174C918.935 183.174 922.488 182.249 925.408 180.4C928.328 178.551 929.788 175.825 929.788 172.224V162.15H917.816C908.083 162.15 903.216 165.265 903.216 171.494V173.976C903.216 177.091 904.189 179.427 906.136 180.984C908.18 182.444 911.051 183.174 914.75 183.174ZM971.193 86.96H989.881V131.344H990.465C991.827 126.964 994.407 123.509 998.203 120.978C1002 118.35 1006.43 117.036 1011.49 117.036C1021.22 117.036 1028.62 120.491 1033.68 127.402C1038.84 134.215 1041.42 143.997 1041.42 156.748C1041.42 169.596 1038.84 179.475 1033.68 186.386C1028.62 193.297 1021.22 196.752 1011.49 196.752C1006.43 196.752 1002 195.438 998.203 192.81C994.504 190.182 991.925 186.678 990.465 182.298H989.881V195H971.193V86.96ZM1005.5 181.276C1010.37 181.276 1014.31 179.67 1017.33 176.458C1020.35 173.246 1021.85 168.915 1021.85 163.464V150.324C1021.85 144.873 1020.35 140.542 1017.33 137.33C1014.31 134.021 1010.37 132.366 1005.5 132.366C1001.03 132.366 997.278 133.485 994.261 135.724C991.341 137.963 989.881 140.931 989.881 144.63V168.866C989.881 172.857 991.341 175.923 994.261 178.064C997.278 180.205 1001.03 181.276 1005.5 181.276Z" fill="white"/>
<path d="M60.0931 264H6.37707C1.30298 264 -1.73208 258.336 1.06674 254.09L166.662 2.86403C167.841 1.07569 169.836 0 171.973 0H226.699C231.781 0 234.814 5.68012 231.999 9.92509L65.3936 261.151C64.2133 262.931 62.2238 264 60.0931 264Z" fill="#F7B101"/>
<path d="M181.055 264H127.339C122.265 264 119.23 258.336 122.029 254.09L287.625 2.86403C288.803 1.07569 290.798 0 292.935 0H347.661C352.743 0 355.776 5.68012 352.961 9.92509L186.356 261.151C185.176 262.931 183.186 264 181.055 264Z" fill="#F7B101"/>
<path d="M302.017 264H248.301C243.227 264 240.192 258.336 242.991 254.09L408.587 2.86403C409.766 1.07569 411.76 0 413.897 0H468.623C473.705 0 476.738 5.68012 473.923 9.92509L307.318 261.151C306.138 262.931 304.148 264 302.017 264Z" fill="#FC271F"/>
</svg>
