<svg width="475" height="264" viewBox="0 0 475 264" fill="none" xmlns="http://www.w3.org/2000/svg">
<path d="M60.0931 264H6.37707C1.30298 264 -1.73208 258.336 1.06674 254.09L166.662 2.86403C167.841 1.07569 169.836 0 171.973 0H226.699C231.781 0 234.814 5.68012 231.999 9.92509L65.3936 261.151C64.2133 262.931 62.2238 264 60.0931 264Z" fill="#F7B101"/>
<path d="M181.055 264H127.339C122.265 264 119.23 258.336 122.029 254.09L287.625 2.86403C288.803 1.07569 290.798 0 292.935 0H347.661C352.743 0 355.776 5.68012 352.961 9.92509L186.356 261.151C185.176 262.931 183.186 264 181.055 264Z" fill="#F7B101"/>
<path d="M302.017 264H248.301C243.227 264 240.192 258.336 242.991 254.09L408.587 2.86403C409.766 1.07569 411.76 0 413.897 0H468.623C473.705 0 476.738 5.68012 473.923 9.92509L307.318 261.151C306.138 262.931 304.148 264 302.017 264Z" fill="#FC271F"/>
</svg>
