<svg width="477" height="467" viewBox="0 0 477 467" fill="none" xmlns="http://www.w3.org/2000/svg">
<path d="M33.244 427H13.972V325.092H59.962C64.634 325.092 68.8193 325.822 72.518 327.282C76.2167 328.742 79.3313 330.883 81.862 333.706C84.49 336.431 86.4853 339.741 87.848 343.634C89.308 347.527 90.038 351.859 90.038 356.628C90.038 363.636 88.432 369.671 85.22 374.732C82.1053 379.793 77.3847 383.395 71.058 385.536L91.936 427H70.474L51.494 387.726H33.244V427ZM58.064 371.52C61.7627 371.52 64.6827 370.547 66.824 368.6C68.9653 366.556 70.036 363.685 70.036 359.986V353.27C70.036 349.571 68.9653 346.749 66.824 344.802C64.6827 342.855 61.7627 341.882 58.064 341.882H33.244V371.52H58.064ZM138.424 428.752C132.779 428.752 127.718 427.827 123.24 425.978C118.86 424.031 115.113 421.355 111.998 417.948C108.981 414.444 106.645 410.259 104.99 405.392C103.336 400.428 102.508 394.88 102.508 388.748C102.508 382.713 103.287 377.263 104.844 372.396C106.499 367.529 108.835 363.393 111.852 359.986C114.87 356.482 118.568 353.805 122.948 351.956C127.328 350.009 132.292 349.036 137.84 349.036C143.778 349.036 148.936 350.058 153.316 352.102C157.696 354.146 161.298 356.92 164.12 360.424C166.943 363.928 169.036 368.016 170.398 372.688C171.858 377.263 172.588 382.178 172.588 387.434V393.566H121.926V395.464C121.926 401.012 123.484 405.489 126.598 408.896C129.713 412.205 134.336 413.86 140.468 413.86C145.14 413.86 148.936 412.887 151.856 410.94C154.874 408.993 157.55 406.511 159.886 403.494L169.96 414.736C166.846 419.116 162.563 422.571 157.112 425.102C151.759 427.535 145.53 428.752 138.424 428.752ZM138.132 363.052C133.168 363.052 129.226 364.707 126.306 368.016C123.386 371.325 121.926 375.608 121.926 380.864V382.032H153.17V380.718C153.17 375.462 151.856 371.228 149.228 368.016C146.698 364.707 142.999 363.052 138.132 363.052ZM192.827 365.534H181.585V350.788H192.827V339.838C192.827 333.122 194.579 327.963 198.083 324.362C201.684 320.761 206.94 318.96 213.851 318.96H227.137V333.852H211.515V350.788H227.137V365.534H211.515V427H192.827V365.534ZM241.242 427V325.092H260.514V409.918H300.664V427H241.242ZM372.702 427C368.614 427 365.353 425.832 362.92 423.496C360.584 421.063 359.124 417.851 358.54 413.86H357.664C356.399 418.824 353.819 422.571 349.926 425.102C346.033 427.535 341.215 428.752 335.472 428.752C327.685 428.752 321.699 426.708 317.514 422.62C313.329 418.532 311.236 413.081 311.236 406.268C311.236 398.384 314.059 392.544 319.704 388.748C325.349 384.855 333.379 382.908 343.794 382.908H356.788V377.36C356.788 373.077 355.669 369.768 353.43 367.432C351.191 365.096 347.59 363.928 342.626 363.928C338.246 363.928 334.693 364.901 331.968 366.848C329.34 368.697 327.101 370.936 325.252 373.564L314.156 363.636C316.979 359.256 320.726 355.752 325.398 353.124C330.07 350.399 336.251 349.036 343.94 349.036C354.257 349.036 362.093 351.372 367.446 356.044C372.799 360.716 375.476 367.432 375.476 376.192V412.108H383.068V427H372.702ZM341.75 415.174C345.935 415.174 349.488 414.249 352.408 412.4C355.328 410.551 356.788 407.825 356.788 404.224V394.15H344.816C335.083 394.15 330.216 397.265 330.216 403.494V405.976C330.216 409.091 331.189 411.427 333.136 412.984C335.18 414.444 338.051 415.174 341.75 415.174ZM398.193 318.96H416.881V363.344H417.465C418.827 358.964 421.407 355.509 425.203 352.978C428.999 350.35 433.427 349.036 438.489 349.036C448.222 349.036 455.619 352.491 460.681 359.402C465.839 366.215 468.419 375.997 468.419 388.748C468.419 401.596 465.839 411.475 460.681 418.386C455.619 425.297 448.222 428.752 438.489 428.752C433.427 428.752 428.999 427.438 425.203 424.81C421.504 422.182 418.925 418.678 417.465 414.298H416.881V427H398.193V318.96ZM432.503 413.276C437.369 413.276 441.311 411.67 444.329 408.458C447.346 405.246 448.855 400.915 448.855 395.464V382.324C448.855 376.873 447.346 372.542 444.329 369.33C441.311 366.021 437.369 364.366 432.503 364.366C428.025 364.366 424.278 365.485 421.261 367.724C418.341 369.963 416.881 372.931 416.881 376.63V400.866C416.881 404.857 418.341 407.923 421.261 410.064C424.278 412.205 428.025 413.276 432.503 413.276Z" fill="white"/>
<path d="M60.3461 265H6.40392C1.30847 265 -1.73938 259.314 1.07123 255.052L167.364 2.87488C168.548 1.07977 170.551 0 172.697 0H227.653C232.757 0 235.803 5.70164 232.976 9.96268L65.6689 262.14C64.4837 263.927 62.4858 265 60.3461 265Z" fill="#F7B101"/>
<path d="M181.818 265H127.875C122.78 265 119.732 259.314 122.543 255.052L288.836 2.87488C290.019 1.07977 292.022 0 294.168 0H349.125C354.228 0 357.274 5.70164 354.447 9.96268L187.14 262.14C185.955 263.927 183.957 265 181.818 265Z" fill="#F7B101"/>
<path d="M303.289 265H249.347C244.251 265 241.204 259.314 244.014 255.052L410.307 2.87488C411.491 1.07977 413.494 0 415.64 0H470.596C475.7 0 478.746 5.70164 475.919 9.96268L308.612 262.14C307.427 263.927 305.429 265 303.289 265Z" fill="#FC271F"/>
</svg>
